<svg
xmlns="http://www.w3.org/2000/svg"
xmlns:xlink="http://www.w3.org/1999/xlink"
width="48"
height="48"
viewBox="0 0 48 48">
  <defs>
    <symbol id="Icon-money">
        
  <title class="" style="">Icon</title>
  <g class="" style="">
    <path d="M25.291,22.008c-0.779-.267-2.181-0.712-2.181-1.736,0-.89.912-1.246,1.892-1.246a4.622,4.622,0,0,1,2.849,1.091L29.5,16.89A9.04,9.04,0,0,0,25.446,15.6V12.906H23.377V15.6a5.059,5.059,0,0,0-4.54,5.23c0,2.715,1.758,3.717,3.494,4.362,1.758,0.646,3.494.868,3.494,2.114a1.9,1.9,0,0,1-2.092,1.625,6.535,6.535,0,0,1-4.028-1.869l-1.825,3.36a7.828,7.828,0,0,0,2.626,1.469,8.031,8.031,0,0,0,2.871.556v2.648h2.069V32.312C28.34,31.6,30.12,30,30.12,26.882,30.12,23.789,27.828,22.854,25.291,22.008Z"  class="" style=""/>
    <path d="M24,5.938A18.062,18.062,0,1,0,42.062,24,18.083,18.083,0,0,0,24,5.938Zm0,33.476A15.413,15.413,0,1,1,39.413,24,15.431,15.431,0,0,1,24,39.413Z"  class="" style=""/>
  </g>

    </symbol>
  </defs>
    <view id="default" viewBox="0 0 48 48"></view>
    <use data-variant="default" xlink:href="#Icon-money" x="0" y="0" fill="#1A2227" />
    <view id="primary" viewBox="0 48 48 48"></view>
    <use data-variant="primary" xlink:href="#Icon-money" x="0" y="48" fill="#FDE83C" />
    <view id="secondary" viewBox="0 96 48 48"></view>
    <use data-variant="secondary" xlink:href="#Icon-money" x="0" y="96" fill="#078942" />
    <view id="dark" viewBox="0 144 48 48"></view>
    <use data-variant="dark" xlink:href="#Icon-money" x="0" y="144" fill="#1A2227" />
    <view id="light" viewBox="0 192 48 48"></view>
    <use data-variant="light" xlink:href="#Icon-money" x="0" y="192" fill="#FFFFFF" />
    <view id="correct" viewBox="0 240 48 48"></view>
    <use data-variant="correct" xlink:href="#Icon-money" x="0" y="240" fill="#00A85A" />
    <view id="error" viewBox="0 288 48 48"></view>
    <use data-variant="error" xlink:href="#Icon-money" x="0" y="288" fill="#E60510" />
    <view id="text" viewBox="0 336 48 48"></view>
    <use data-variant="text" xlink:href="#Icon-money" x="0" y="336" fill="#1A2227" />
    <view id="neutral" viewBox="0 384 48 48"></view>
    <use data-variant="neutral" xlink:href="#Icon-money" x="0" y="384" fill="#e5e5e5" />
    <view id="highlight" viewBox="0 432 48 48"></view>
    <use data-variant="highlight" xlink:href="#Icon-money" x="0" y="432" fill="#FDE83C" />
    <view id="link" viewBox="0 480 48 48"></view>
    <use data-variant="link" xlink:href="#Icon-money" x="0" y="480" fill="#065395" />
    <view id="border" viewBox="0 528 48 48"></view>
    <use data-variant="border" xlink:href="#Icon-money" x="0" y="528" fill="#E2E6EC" />
    <view id="disabled" viewBox="0 576 48 48"></view>
    <use data-variant="disabled" xlink:href="#Icon-money" x="0" y="576" fill="#D2D8E1" />
</svg>
