<svg
xmlns="http://www.w3.org/2000/svg"
xmlns:xlink="http://www.w3.org/1999/xlink"
width="48"
height="48"
viewBox="0 0 48 48">
  <defs>
    <symbol id="Icon-one">
        
<path d="M29.54 16.832H25.58V10.856H36.596V38H29.54V16.832Z"  class="" style=""/>
<path d="M10.9238 22.6796L10.0352 25.1601H12.5352L13.4238 22.6796H10.9238ZM11.1777 16.7421H13.043L11.5391 21H13.9805L15.5039 16.7421H17.3594L15.8555 21H18.6973L18.1211 22.6796H15.2598L14.3809 25.1406H17.3984L16.8027 26.8203H13.8047L12.2812 31.0586H10.416L11.9395 26.8203H9.47852L7.93555 31.0586H6.08008L7.60352 26.8203H4.68359L5.2793 25.1406H8.17969L9.05859 22.6796H5.98242L6.57812 21H9.66406L11.1777 16.7421Z"  class="" style=""/>

    </symbol>
  </defs>
    <view id="default" viewBox="0 0 48 48"></view>
    <use data-variant="default" xlink:href="#Icon-one" x="0" y="0" fill="#1A2227" />
    <view id="primary" viewBox="0 48 48 48"></view>
    <use data-variant="primary" xlink:href="#Icon-one" x="0" y="48" fill="#FDE83C" />
    <view id="secondary" viewBox="0 96 48 48"></view>
    <use data-variant="secondary" xlink:href="#Icon-one" x="0" y="96" fill="#078942" />
    <view id="dark" viewBox="0 144 48 48"></view>
    <use data-variant="dark" xlink:href="#Icon-one" x="0" y="144" fill="#1A2227" />
    <view id="light" viewBox="0 192 48 48"></view>
    <use data-variant="light" xlink:href="#Icon-one" x="0" y="192" fill="#FFFFFF" />
    <view id="correct" viewBox="0 240 48 48"></view>
    <use data-variant="correct" xlink:href="#Icon-one" x="0" y="240" fill="#00A85A" />
    <view id="error" viewBox="0 288 48 48"></view>
    <use data-variant="error" xlink:href="#Icon-one" x="0" y="288" fill="#E60510" />
    <view id="text" viewBox="0 336 48 48"></view>
    <use data-variant="text" xlink:href="#Icon-one" x="0" y="336" fill="#1A2227" />
    <view id="neutral" viewBox="0 384 48 48"></view>
    <use data-variant="neutral" xlink:href="#Icon-one" x="0" y="384" fill="#e5e5e5" />
    <view id="highlight" viewBox="0 432 48 48"></view>
    <use data-variant="highlight" xlink:href="#Icon-one" x="0" y="432" fill="#FDE83C" />
    <view id="link" viewBox="0 480 48 48"></view>
    <use data-variant="link" xlink:href="#Icon-one" x="0" y="480" fill="#065395" />
    <view id="border" viewBox="0 528 48 48"></view>
    <use data-variant="border" xlink:href="#Icon-one" x="0" y="528" fill="#E2E6EC" />
    <view id="disabled" viewBox="0 576 48 48"></view>
    <use data-variant="disabled" xlink:href="#Icon-one" x="0" y="576" fill="#D2D8E1" />
</svg>
