<svg
xmlns="http://www.w3.org/2000/svg"
xmlns:xlink="http://www.w3.org/1999/xlink"
width="48"
height="48"
viewBox="0 0 48 48">
  <defs>
    <symbol id="Icon-award">
        
  <title class="" style="">Icon</title>
  <path d="M22.695,35.647l-1.972,6.884-2.505-3.371-3.879,1.417,2.073-6.826s-0.464-.063-0.609-0.108-0.6-.259-0.6-0.259l-2.6,9.037,5.212-1.9,3.353,4.511,2.695-9.161s-0.4-.006-0.555-0.033S22.695,35.647,22.695,35.647Zm8.614-2.021,1.428,3.158-3.125-.7-1.6,2.7-1.536-3.374-0.828.4,2.243,4.868,2.148-3.627,4.183,0.938-2.074-4.555Zm3.816-13.8L35.58,16.66a0.237,0.237,0,0,0-.074-0.208L33.152,14.26a2.555,2.555,0,0,1-.508-0.659l-1.516-2.826a0.243,0.243,0,0,0-.182-0.125l-3.21-.407a2.608,2.608,0,0,1-.8-0.238L24.026,8.6a0.236,0.236,0,0,0-.105-0.024A0.245,0.245,0,0,0,23.8,8.6l-2.839,1.535a2.611,2.611,0,0,1-.791.274l-3.189.551a0.241,0.241,0,0,0-.176.133l-1.384,2.891a2.541,2.541,0,0,1-.476.68l-2.252,2.3a0.235,0.235,0,0,0-.064.21l0.6,3.143a2.51,2.51,0,0,1,.019.829L12.8,24.314a0.238,0.238,0,0,0,.073.207l2.355,2.194a2.542,2.542,0,0,1,.508.658L17.25,30.2a0.241,0.241,0,0,0,.18.125l3.211,0.407a2.61,2.61,0,0,1,.8.238l2.907,1.406a0.242,0.242,0,0,0,.222,0l2.839-1.535a2.6,2.6,0,0,1,.791-0.274l3.189-.551a0.242,0.242,0,0,0,.177-0.133l1.383-2.891a2.553,2.553,0,0,1,.477-0.681l2.251-2.3a0.237,0.237,0,0,0,.065-0.21l-0.6-3.143A2.519,2.519,0,0,1,35.125,19.827Zm3.141,3.737L37.64,20.286a0.606,0.606,0,0,1,0-.2l0.474-3.3a2.272,2.272,0,0,0-.7-1.981l-2.456-2.288a0.613,0.613,0,0,1-.124-0.161L33.246,9.4a2.317,2.317,0,0,0-1.747-1.2l-3.347-.424a0.654,0.654,0,0,1-.2-0.058L24.924,6.259a2.354,2.354,0,0,0-2.124.048l-2.961,1.6a0.639,0.639,0,0,1-.193.067l-3.326.575a2.309,2.309,0,0,0-1.689,1.272l-1.444,3.016a0.624,0.624,0,0,1-.116.166l-2.348,2.4a2.267,2.267,0,0,0-.61,2.01l0.626,3.277a0.619,0.619,0,0,1,.005.2l-0.474,3.3a2.268,2.268,0,0,0,.7,1.981l2.456,2.289a0.617,0.617,0,0,1,.124.161l1.581,2.948a2.319,2.319,0,0,0,1.746,1.195l3.347,0.424a0.649,0.649,0,0,1,.2.058l3.032,1.467a2.315,2.315,0,0,0,.352.136,2.347,2.347,0,0,0,1.772-.184l2.961-1.6A0.637,0.637,0,0,1,28.732,33l3.325-.575a2.31,2.31,0,0,0,1.69-1.272l1.444-3.016a0.608,0.608,0,0,1,.116-0.166l2.347-2.4A2.263,2.263,0,0,0,38.266,23.564Zm-1.55,1.112-2.348,2.4a1.939,1.939,0,0,0-.359.513L32.566,30.6a1,1,0,0,1-.733.552l-3.326.575a1.972,1.972,0,0,0-.6.206l-2.961,1.6a1.01,1.01,0,0,1-.923.02L21,32.089a1.889,1.889,0,0,0-.293-0.114,1.938,1.938,0,0,0-.31-0.065l-3.348-.425a1,1,0,0,1-.758-0.519l-1.581-2.948a1.9,1.9,0,0,0-.382-0.495l-2.457-2.289a0.985,0.985,0,0,1-.3-0.859l0.474-3.3a1.882,1.882,0,0,0-.014-0.623L11.4,17.171a0.981,0.981,0,0,1,.265-0.872l2.349-2.4a1.911,1.911,0,0,0,.358-0.512l1.444-3.016a1,1,0,0,1,.733-0.552l3.326-.575a1.966,1.966,0,0,0,.595-0.206l2.96-1.6a1.031,1.031,0,0,1,.924-0.02l3.031,1.466a1.961,1.961,0,0,0,.6.179l3.347,0.424a1,1,0,0,1,.758.519l1.581,2.948a1.9,1.9,0,0,0,.382.5l2.456,2.288a0.986,0.986,0,0,1,.3.86l-0.474,3.3a1.914,1.914,0,0,0,.015.623L36.981,23.8A0.982,0.982,0,0,1,36.715,24.676Z"  class="" style=""/>

    </symbol>
  </defs>
    <view id="default" viewBox="0 0 48 48"></view>
    <use data-variant="default" xlink:href="#Icon-award" x="0" y="0" fill="#1A2227" />
    <view id="primary" viewBox="0 48 48 48"></view>
    <use data-variant="primary" xlink:href="#Icon-award" x="0" y="48" fill="#FDE83C" />
    <view id="secondary" viewBox="0 96 48 48"></view>
    <use data-variant="secondary" xlink:href="#Icon-award" x="0" y="96" fill="#078942" />
    <view id="dark" viewBox="0 144 48 48"></view>
    <use data-variant="dark" xlink:href="#Icon-award" x="0" y="144" fill="#1A2227" />
    <view id="light" viewBox="0 192 48 48"></view>
    <use data-variant="light" xlink:href="#Icon-award" x="0" y="192" fill="#FFFFFF" />
    <view id="correct" viewBox="0 240 48 48"></view>
    <use data-variant="correct" xlink:href="#Icon-award" x="0" y="240" fill="#00A85A" />
    <view id="error" viewBox="0 288 48 48"></view>
    <use data-variant="error" xlink:href="#Icon-award" x="0" y="288" fill="#E60510" />
    <view id="text" viewBox="0 336 48 48"></view>
    <use data-variant="text" xlink:href="#Icon-award" x="0" y="336" fill="#1A2227" />
    <view id="neutral" viewBox="0 384 48 48"></view>
    <use data-variant="neutral" xlink:href="#Icon-award" x="0" y="384" fill="#e5e5e5" />
    <view id="highlight" viewBox="0 432 48 48"></view>
    <use data-variant="highlight" xlink:href="#Icon-award" x="0" y="432" fill="#FDE83C" />
    <view id="link" viewBox="0 480 48 48"></view>
    <use data-variant="link" xlink:href="#Icon-award" x="0" y="480" fill="#065395" />
    <view id="border" viewBox="0 528 48 48"></view>
    <use data-variant="border" xlink:href="#Icon-award" x="0" y="528" fill="#E2E6EC" />
    <view id="disabled" viewBox="0 576 48 48"></view>
    <use data-variant="disabled" xlink:href="#Icon-award" x="0" y="576" fill="#D2D8E1" />
</svg>
